<svg width="25" height="19" viewBox="0 0 25 19" fill="none" xmlns="http://www.w3.org/2000/svg">
<path d="M23.8678 3.15586L19.0408 0.397461C19.0392 0.396484 19.0377 0.395898 19.0361 0.395019C19.0248 0.388815 19.0132 0.382985 19.0015 0.377539C18.9957 0.374609 18.9897 0.371582 18.9837 0.368945C18.9727 0.364063 18.9614 0.360156 18.9501 0.355957C18.9429 0.353418 18.9359 0.350488 18.9287 0.348145C18.9193 0.345215 18.9096 0.342871 18.9001 0.340332C18.8907 0.337793 18.8813 0.335059 18.8719 0.333106C18.8644 0.331543 18.8567 0.330469 18.8492 0.329199C18.8374 0.327246 18.8256 0.325098 18.8137 0.323828C18.8073 0.323144 18.8007 0.322851 18.7942 0.322461C18.7813 0.321384 18.7683 0.320732 18.7553 0.320508L18.7501 0.320312H15.6251C15.4697 0.320313 15.3206 0.382045 15.2107 0.49193C15.1009 0.601814 15.0391 0.75085 15.0391 0.90625C15.0391 1.57965 14.7716 2.22547 14.2955 2.70164C13.8193 3.1778 13.1735 3.44531 12.5001 3.44531C11.8267 3.44531 11.1808 3.1778 10.7047 2.70164C10.2285 2.22547 9.96101 1.57965 9.96101 0.90625C9.96101 0.75085 9.89927 0.601814 9.78939 0.49193C9.6795 0.382045 9.53047 0.320313 9.37507 0.320312H6.25007L6.2448 0.320605C6.2319 0.320605 6.21901 0.321582 6.20612 0.322558C6.19948 0.323047 6.19284 0.323242 6.1863 0.323926C6.17458 0.325195 6.16286 0.327246 6.15124 0.329297C6.14353 0.330566 6.13571 0.331543 6.12819 0.333203C6.11882 0.335156 6.10964 0.337891 6.10046 0.340332C6.09069 0.342871 6.08093 0.345215 6.07136 0.34834C6.06433 0.350586 6.05739 0.353418 6.05036 0.355957C6.03894 0.360156 6.02751 0.364258 6.01647 0.369043C6.01042 0.37168 6.00466 0.374805 5.9987 0.377637C5.98698 0.383203 5.97526 0.388769 5.96403 0.395117L5.95935 0.397461L1.1322 3.15586C0.828922 3.32938 0.603548 3.61238 0.50231 3.9468C0.401072 4.28122 0.431648 4.64171 0.587764 4.9543L2.38503 8.54893C2.49788 8.77658 2.67227 8.96805 2.88841 9.10163C3.10455 9.23521 3.35379 9.30556 3.60788 9.30469H5.66413V17.3125C5.66454 17.675 5.80872 18.0225 6.06503 18.2788C6.32134 18.5351 6.66885 18.6793 7.03132 18.6797H17.9688C18.3313 18.6793 18.6788 18.5351 18.9351 18.2788C19.1914 18.0225 19.3356 17.675 19.336 17.3125V9.30469H21.3923C21.6464 9.30555 21.8956 9.23519 22.1117 9.10159C22.3279 8.96799 22.5023 8.7765 22.6151 8.54883L24.4124 4.9543C24.5685 4.64169 24.599 4.2812 24.4978 3.94678C24.3965 3.61236 24.1711 3.32937 23.8678 3.15586V3.15586ZM3.60788 8.13281C3.5716 8.13294 3.53601 8.12289 3.50515 8.10382C3.47429 8.08475 3.44939 8.05741 3.43327 8.0249L1.63581 4.43027C1.61353 4.3856 1.60918 4.33411 1.62366 4.28634C1.63813 4.23856 1.67032 4.19814 1.71364 4.17334L5.66413 1.91592V8.13281H3.60788ZM18.1641 17.3125C18.1641 17.3643 18.1435 17.4139 18.1069 17.4506C18.0703 17.4872 18.0206 17.5078 17.9688 17.5078H7.03132C6.97953 17.5078 6.92989 17.4872 6.89327 17.4506C6.85665 17.4139 6.83606 17.3643 6.83601 17.3125V1.49219H8.83532C8.97474 2.36381 9.42025 3.15721 10.0919 3.72997C10.7636 4.30273 11.6174 4.61735 12.5001 4.61735C13.3828 4.61735 14.2366 4.30273 14.9082 3.72997C15.5799 3.15721 16.0254 2.36381 16.1648 1.49219H18.1641V17.3125ZM23.3642 4.43027L21.5669 8.0249C21.5508 8.05741 21.5258 8.08475 21.495 8.10382C21.4641 8.12289 21.4285 8.13294 21.3923 8.13281H19.336V1.91602L23.2864 4.17334C23.3297 4.19812 23.3619 4.23853 23.3764 4.28628C23.3908 4.33404 23.3865 4.38552 23.3642 4.43018V4.43027Z" fill="black"/>
</svg>
