<svg width="20" height="20" viewBox="0 0 20 20" fill="none" xmlns="http://www.w3.org/2000/svg">
<path d="M18.0273 5.53905C17.7655 4.93287 17.3881 4.38356 16.916 3.92186C16.4436 3.45878 15.8866 3.09079 15.2754 2.83787C14.6416 2.57458 13.9617 2.43981 13.2754 2.44139C12.3125 2.44139 11.373 2.70506 10.5566 3.20311C10.3613 3.32225 10.1758 3.45311 10 3.59569C9.82422 3.45311 9.63867 3.32225 9.44336 3.20311C8.62695 2.70506 7.6875 2.44139 6.72461 2.44139C6.03125 2.44139 5.35938 2.5742 4.72461 2.83787C4.11133 3.09178 3.55859 3.45701 3.08398 3.92186C2.61132 4.38303 2.23375 4.93248 1.97266 5.53905C1.70117 6.16991 1.5625 6.83983 1.5625 7.52928C1.5625 8.17967 1.69531 8.85741 1.95898 9.54686C2.17969 10.123 2.49609 10.7207 2.90039 11.3242C3.54102 12.2793 4.42188 13.2754 5.51562 14.2851C7.32812 15.959 9.12305 17.1152 9.19922 17.1621L9.66211 17.459C9.86719 17.5898 10.1309 17.5898 10.3359 17.459L10.7988 17.1621C10.875 17.1133 12.668 15.959 14.4824 14.2851C15.5762 13.2754 16.457 12.2793 17.0977 11.3242C17.502 10.7207 17.8203 10.123 18.0391 9.54686C18.3027 8.85741 18.4355 8.17967 18.4355 7.52928C18.4375 6.83983 18.2988 6.16991 18.0273 5.53905ZM10 15.914C10 15.914 3.04688 11.459 3.04688 7.52928C3.04688 5.53905 4.69336 3.92576 6.72461 3.92576C8.15234 3.92576 9.39062 4.72264 10 5.8867C10.6094 4.72264 11.8477 3.92576 13.2754 3.92576C15.3066 3.92576 16.9531 5.53905 16.9531 7.52928C16.9531 11.459 10 15.914 10 15.914Z" fill="#DB3022"/>
<path d="M10 15.914C10 15.914 3.04688 11.459 3.04688 7.52928C3.04688 5.53905 4.69336 3.92576 6.72461 3.92576C8.15234 3.92576 9.39062 4.72264 10 5.8867C10.6094 4.72264 11.8477 3.92576 13.2754 3.92576C15.3066 3.92576 16.9531 5.53905 16.9531 7.52928C16.9531 11.459 10 15.914 10 15.914Z" fill="#DB3022"/>
</svg>
