<svg width="19" height="21" viewBox="0 0 19 21" fill="none" xmlns="http://www.w3.org/2000/svg">
<path d="M4.81254 0.34375C3.0977 0.34375 1.84614 1.59766 1.12583 3.07812C0.406295 4.55859 0.0945766 6.34375 0.125045 7.9125C0.161764 9.73437 0.955514 11.5742 0.955514 11.5742L1.17426 12.0625H7.74223L7.91333 11.4766C7.91333 11.4766 8.52973 9.17891 8.69458 6.98438C8.75864 6.12109 8.73129 4.61953 8.25473 3.2C8.01723 2.48906 7.67192 1.79375 7.10708 1.24688C6.54379 0.700781 5.74067 0.34375 4.81254 0.34375ZM14.1875 0.34375C13.2594 0.34375 12.4571 0.700781 11.8922 1.24688C11.3282 1.79375 10.9829 2.48906 10.7454 3.2C10.2688 4.61953 10.2415 6.12109 10.3055 6.98438C10.4704 9.17891 11.0868 11.4766 11.0868 11.4766L11.2579 12.0625H17.825L18.0454 11.5742C18.0454 11.5742 18.8383 9.73438 18.875 7.91172C18.9063 6.34375 18.5938 4.55859 17.8743 3.07812C17.154 1.59766 15.9024 0.34375 14.1875 0.34375ZM4.81254 1.90625C5.36176 1.90625 5.69458 2.06484 6.00864 2.37031C6.32348 2.675 6.60395 3.16016 6.78989 3.7125C7.15942 4.81797 7.20473 6.22422 7.15629 6.88672C7.02817 8.58672 6.62192 10.0086 6.49692 10.5H2.25005C2.06098 9.96562 1.70942 8.925 1.68833 7.8875C1.66098 6.56328 1.96567 4.94922 2.54301 3.76172C3.11879 2.57422 3.85161 1.90625 4.81254 1.90625ZM14.1875 1.90625C15.1485 1.90625 15.8813 2.57422 16.4579 3.76172C17.0352 4.94922 17.3368 6.56328 17.3125 7.8875C17.2915 8.925 16.9399 9.96562 16.7508 10.5H12.5032C12.3782 10.0086 11.9719 8.58594 11.8438 6.88672C11.7946 6.22422 11.8407 4.81797 12.2102 3.7125C12.3961 3.16016 12.6766 2.675 12.9915 2.37031C13.3047 2.06562 13.6383 1.90625 14.1875 1.90625ZM0.906295 14.4062V15.1875C0.89692 16.2648 1.00083 17.5219 1.54145 18.6297C2.07973 19.7375 3.21645 20.6562 4.81254 20.6562C6.57973 20.6562 7.92192 18.9258 7.93754 16.75C7.94067 16.2461 7.91958 15.6547 7.74223 14.9922L7.59536 14.4062H0.906295ZM11.4047 14.4062L11.2579 14.9922C11.0805 15.6547 11.0594 16.2461 11.0625 16.75C11.0782 18.9258 12.4204 20.6562 14.1875 20.6562C15.7836 20.6562 16.9188 19.7375 17.4594 18.6297C17.9985 17.5219 18.1032 16.2648 18.0938 15.1875V14.4062H11.4047ZM2.58989 15.9688H6.30083C6.32817 16.225 6.37739 16.4875 6.37426 16.75C6.36176 18.3305 5.53833 19.0938 4.81176 19.0938C3.73442 19.0938 3.28833 18.6758 2.93208 17.9461C2.67583 17.4242 2.64536 16.6734 2.58989 15.9688ZM12.6977 15.9688H16.4086C16.354 16.6734 16.3227 17.4242 16.0665 17.9461C15.711 18.6758 15.2657 19.0938 14.1875 19.0938C13.461 19.0938 12.6375 18.3305 12.625 16.75C12.6219 16.4875 12.6711 16.225 12.6985 15.9688H12.6977Z" fill="black"/>
</svg>
